# xmcd
#
# Track frame offsets: 
#        150
#        11562
#        26035
#        42147
#        57308
#        70386
#        86693
#        98674
#        114956
#        127839
#        143170
#        156565
#        170392
#        184306
#        198265
#        211179
#        222710
#
# Disc length: 3188 seconds
#
# Revision: 0
# Processed by: cddbd v1.5.2PL0 Copyright (c) Steve Scherf et al.
# Submitted via: ExactAudioCopyFreeDBPlugin 1.0
#
DISCID=f20c7211
DTITLE=Pedro Paulo and Alex - Sucesso nas Repúblicas
DYEAR=2015
DGENRE=Sertanejo
TTITLE0=Loka Loka
TTITLE1=Eu Voltei
TTITLE2=Tá Calor, Tá Calor
TTITLE3=Açucar em Mim
TTITLE4=Balança mais não pára
TTITLE5=Arreia
TTITLE6=Vêm Vêm
TTITLE7=Fama de PEgador
TTITLE8=É Nóis Que Tá
TTITLE9=Ato de Bravura
TTITLE10=Histórias pra Contar
TTITLE11=Do Nada
TTITLE12=Sem Resposta
TTITLE13=Tá que Tá
TTITLE14=Tome Love
TTITLE15=República Pingaiada
TTITLE16=Fazer o Proibido (Escondidinho)
EXTD=
EXTT0=
EXTT1=
EXTT2=
EXTT3=
EXTT4=
EXTT5=
EXTT6=
EXTT7=
EXTT8=
EXTT9=
EXTT10=
EXTT11=
EXTT12=
EXTT13=
EXTT14=
EXTT15=
EXTT16=
PLAYORDER=
